<svg width="125" height="125" viewBox="0 0 125 125" fill="none" xmlns="http://www.w3.org/2000/svg">
  <path
    d="M107.822 33.9901C107.076 34.8264 105.791 34.881 104.929 34.1629C101.842 31.5883 98.3798 29.5606 94.5436 28.08C90.0596 26.2707 85.379 25.366 80.5016 25.366C75.3096 25.366 70.4323 26.3493 65.8696 28.316C61.307 30.204 57.295 32.8787 53.8336 36.34C50.3723 39.7227 47.6583 43.6953 45.6916 48.258C43.725 52.742 42.7416 57.58 42.7416 62.772C42.7416 67.8853 43.725 72.7233 45.6916 77.286C47.6583 81.77 50.3723 85.7427 53.8336 89.204C57.295 92.5867 61.307 95.2613 65.8696 97.228C70.4323 99.116 75.3096 100.06 80.5016 100.06C85.379 100.06 90.0596 99.1553 94.5436 97.346C98.4187 95.7824 101.912 93.7487 105.023 91.2451C105.847 90.5819 107.045 90.6136 107.793 91.3616L108.069 91.6374C108.868 92.4364 108.85 93.7419 107.987 94.4714C105.871 96.2607 103.553 97.8482 101.034 99.234C97.887 100.965 94.5436 102.302 91.0036 103.246C87.5423 104.111 84.0023 104.544 80.3836 104.544C74.4836 104.544 68.9376 103.482 63.7456 101.358C58.6323 99.1553 54.109 96.1267 50.1756 92.272C46.321 88.4173 43.2923 83.9727 41.0896 78.938C38.887 73.8247 37.7856 68.436 37.7856 62.772C37.7856 56.9507 38.887 51.5227 41.0896 46.488C43.2923 41.4533 46.3603 37.048 50.2936 33.272C54.227 29.4173 58.7503 26.428 63.8636 24.304C69.0556 22.1013 74.5623 21 80.3836 21C84.081 21 87.6603 21.472 91.1216 22.416C94.6616 23.2813 97.9656 24.54 101.034 26.192C103.522 27.5319 105.829 29.1047 107.955 30.9104C108.783 31.6131 108.835 32.8562 108.112 33.6661L107.822 33.9901Z"
    fill="#f0f0f0" stroke="#f0f0f0" stroke-width="5" />
  <path
    d="M78.1922 81.963L73.4548 80.6492C72.9577 80.5156 72.6781 80.0183 72.8179 79.5433L83.4189 44.643C83.5587 44.168 84.079 43.9007 84.576 44.0344L89.3135 45.3481C89.8105 45.4817 90.0901 45.979 89.9503 46.4541L79.3494 81.3543C79.2018 81.8294 78.6892 82.104 78.1922 81.963Z"
    fill="#f0f0f0" />
  <path
    d="M105.941 63.6518L94.7499 73.6795C94.3694 74.0136 93.7791 73.9987 93.4296 73.635L90.0513 70.191C89.6863 69.8273 89.7174 69.2484 90.1134 68.9143L95.33 64.5286C96.2802 63.7297 96.2807 62.2671 95.3309 61.4677L90.1134 57.0756C89.7174 56.7416 89.6941 56.1626 90.0513 55.7989L93.4296 52.3549C93.7869 51.9986 94.3771 51.9838 94.7499 52.3178L105.941 62.3529C106.337 62.7018 106.337 63.303 105.941 63.6518Z"
    fill="#D417C7" />
  <path
    d="M14 88.788C12.8954 88.788 12 87.8926 12 86.788V71.3638C12 71.1038 12.0507 70.8462 12.1493 70.6056L31.5513 23.2419C31.859 22.4907 32.5903 22 33.402 22H54.8366C56.2497 22 57.2172 23.4257 56.6951 24.7389L36.0642 76.6319C35.4686 78.1301 33.4359 78.3439 32.5416 77.0024L29.4129 72.3094C28.5269 70.9803 29.4796 69.2 31.077 69.2H79.62C80.7246 69.2 81.62 70.0954 81.62 71.2V86.788C81.62 87.8926 80.7246 88.788 79.62 88.788H14ZM47.282 55.388C47.282 54.2834 48.1774 53.388 49.282 53.388H70.18C71.2846 53.388 72.18 54.2834 72.18 55.388V102.718C72.18 103.823 71.2846 104.718 70.18 104.718H49.282C48.1774 104.718 47.282 103.823 47.282 102.718V55.388Z"
    fill="#D417C7" />
</svg>