<svg width="129" height="59" viewBox="0 0 129 59" fill="none" xmlns="http://www.w3.org/2000/svg">
<path d="M0.5 0.676229H25.9477V8.61065H10.9679V14.0656H25.0002V22H10.9679V32.2787H0.5V0.676229Z" fill="#2C2C2C"/>
<path d="M44.7564 0C47.2832 0 49.5993 0.405738 51.7049 1.21721C53.8105 2.02869 55.6454 3.17076 57.2096 4.64344C58.7738 6.11612 59.9769 7.85929 60.8192 9.87295C61.6915 11.8566 62.1277 14.0355 62.1277 16.4098C62.1277 18.7842 61.6915 20.9932 60.8192 23.0369C59.9769 25.0505 58.7738 26.8087 57.2096 28.3115C55.6454 29.7842 53.8105 30.9413 51.7049 31.7828C49.5993 32.5943 47.2832 33 44.7564 33C42.2297 33 39.9136 32.5943 37.808 31.7828C35.7024 30.9413 33.8675 29.7842 32.3033 28.3115C30.7391 26.8087 29.5209 25.0505 28.6486 23.0369C27.8063 21.0232 27.3852 18.8142 27.3852 16.4098C27.3852 14.0055 27.8063 11.8115 28.6486 9.82787C29.5209 7.81421 30.7391 6.08607 32.3033 4.64344C33.8675 3.17076 35.7024 2.02869 37.808 1.21721C39.9136 0.405738 42.2297 0 44.7564 0ZM44.8918 8.70082C43.9894 8.70082 43.1171 8.89618 42.2748 9.28688C41.4627 9.64754 40.7408 10.1885 40.1091 10.9098C39.5075 11.6011 39.0262 12.4126 38.6652 13.3443C38.3043 14.276 38.1238 15.3128 38.1238 16.4549C38.1238 17.5669 38.3043 18.6038 38.6652 19.5656C39.0262 20.5273 39.5225 21.3689 40.1542 22.0902C40.7859 22.7814 41.5078 23.3224 42.32 23.7131C43.1321 24.1038 43.9894 24.2992 44.8918 24.2992C45.7942 24.2992 46.6364 24.1038 47.4185 23.7131C48.2006 23.3224 48.8925 22.7814 49.4941 22.0902C50.0957 21.3689 50.5619 20.5273 50.8928 19.5656C51.2237 18.6038 51.3891 17.5669 51.3891 16.4549C51.3891 15.3128 51.2237 14.276 50.8928 13.3443C50.5619 12.4126 50.0957 11.6011 49.4941 10.9098C48.8925 10.1885 48.2006 9.64754 47.4185 9.28688C46.6364 8.89618 45.7942 8.70082 44.8918 8.70082Z" fill="#2C2C2C"/>
<path d="M75.0683 19.1598C75.0683 20.7227 75.5346 21.9699 76.467 22.9016C77.3995 23.8333 78.4674 24.2992 79.6706 24.2992C80.8738 24.2992 81.8815 23.8333 82.6936 22.9016C83.5359 21.9699 83.957 20.7227 83.957 19.1598V0.676229H94.4248V19.1598C94.4248 21.9549 93.8082 24.3893 92.5749 26.4631C91.3717 28.5369 89.6571 30.1448 87.4312 31.2869C85.2354 32.429 82.6335 33 79.6254 33C76.6174 33 73.9854 32.429 71.7294 31.2869C69.4734 30.1448 67.7138 28.5369 66.4504 26.4631C65.2171 24.3893 64.6005 21.9549 64.6005 19.1598V0.676229H75.0683V19.1598Z" fill="#2C2C2C"/>
<path d="M113.791 0.676229C118.092 0.676229 121.416 1.66803 123.762 3.65164C126.109 5.60519 127.282 8.38525 127.282 11.9918C127.282 15.8087 126.109 18.7842 123.762 20.918C121.416 23.0219 118.092 24.0738 113.791 24.0738H108.963V32.2787H98.4952V0.676229H113.791ZM113.791 16.1393C114.934 16.1393 115.806 15.8087 116.408 15.1475C117.04 14.4563 117.355 13.5096 117.355 12.3074C117.355 11.1352 117.04 10.2336 116.408 9.60246C115.806 8.94126 114.934 8.61065 113.791 8.61065H108.963V16.1393H113.791ZM111.129 20.332H121.236L128.5 32.2787H116.679L111.129 20.332Z" fill="#2C2C2C"/>
<path d="M17.379 42.2345C16.5568 41.3747 15.61 40.7046 14.5386 40.2241C13.4672 39.7437 12.3584 39.5034 11.2123 39.5034C10.0661 39.5034 8.99475 39.7184 7.9981 40.1483C7.00145 40.5782 6.11693 41.1851 5.34452 41.969C4.59704 42.7529 4.01151 43.6506 3.58793 44.6621C3.16436 45.6736 2.95257 46.7736 2.95257 47.9621C2.95257 49.1253 3.16436 50.2126 3.58793 51.2241C4.01151 52.2356 4.59704 53.1333 5.34452 53.9172C6.11693 54.6759 7.00145 55.2828 7.9981 55.7379C8.99475 56.1678 10.0661 56.3828 11.2123 56.3828C12.3335 56.3828 13.4298 56.1552 14.5012 55.7C15.5726 55.2195 16.5319 54.5747 17.379 53.7655L19.0983 55.5862C18.0518 56.623 16.8184 57.4575 15.3982 58.0897C14.0029 58.6966 12.5578 59 11.0628 59C9.51799 59 8.07285 58.7218 6.72737 58.1655C5.40681 57.5839 4.23575 56.8 3.21419 55.8138C2.19263 54.8023 1.39531 53.6264 0.822235 52.2862C0.274078 50.946 0 49.5046 0 47.9621C0 46.4195 0.286536 44.9908 0.859609 43.6759C1.43268 42.3356 2.23 41.1724 3.25156 40.1862C4.27313 39.1747 5.45665 38.3908 6.80212 37.8345C8.1476 37.2782 9.60519 37 11.1749 37C12.1716 37 13.1433 37.1264 14.0901 37.3793C15.0369 37.6322 15.9339 37.9988 16.7811 38.4793C17.6531 38.9598 18.4255 39.5414 19.0983 40.2241L17.379 42.2345Z" fill="#2C2C2C"/>
<path d="M32.8558 37C34.4255 37 35.8831 37.2782 37.2286 37.8345C38.599 38.3908 39.795 39.1747 40.8165 40.1862C41.8381 41.1724 42.6354 42.3356 43.2085 43.6759C43.8065 44.9908 44.1055 46.4195 44.1055 47.9621C44.1055 49.5046 43.8065 50.946 43.2085 52.2862C42.6354 53.6011 41.8381 54.7644 40.8165 55.7759C39.795 56.7874 38.599 57.5839 37.2286 58.1655C35.8831 58.7218 34.4255 59 32.8558 59C31.2612 59 29.7911 58.7218 28.4456 58.1655C27.1002 57.5839 25.9042 56.7874 24.8577 55.7759C23.8361 54.7644 23.0388 53.6011 22.4657 52.2862C21.8927 50.946 21.6061 49.5046 21.6061 47.9621C21.6061 46.4195 21.8927 44.9908 22.4657 43.6759C23.0388 42.3356 23.8361 41.1724 24.8577 40.1862C25.9042 39.1747 27.1002 38.3908 28.4456 37.8345C29.7911 37.2782 31.2612 37 32.8558 37ZM32.8932 39.5414C31.747 39.5414 30.6756 39.7563 29.679 40.1862C28.6823 40.6161 27.7978 41.223 27.0254 42.0069C26.2779 42.7655 25.6799 43.6632 25.2314 44.7C24.8079 45.7115 24.5961 46.7988 24.5961 47.9621C24.5961 49.1253 24.8079 50.2253 25.2314 51.2621C25.6799 52.2989 26.2779 53.2092 27.0254 53.9931C27.7978 54.7517 28.6823 55.3586 29.679 55.8138C30.6756 56.2437 31.747 56.4586 32.8932 56.4586C34.0144 56.4586 35.0609 56.2437 36.0326 55.8138C37.0293 55.3586 37.9013 54.7517 38.6488 53.9931C39.4212 53.2092 40.0192 52.2989 40.4428 51.2621C40.8664 50.2253 41.0781 49.1253 41.0781 47.9621C41.0781 46.7988 40.8664 45.7115 40.4428 44.7C40.0192 43.6632 39.4212 42.7655 38.6488 42.0069C37.9013 41.223 37.0293 40.6161 36.0326 40.1862C35.0609 39.7563 34.0144 39.5414 32.8932 39.5414Z" fill="#2C2C2C"/>
<path d="M58.5375 37.2276C60.1072 37.2276 61.5648 37.4931 62.9103 38.0241C64.2557 38.5552 65.4268 39.3138 66.4235 40.3C67.445 41.2609 68.2299 42.3988 68.778 43.7138C69.3262 45.0287 69.6003 46.4575 69.6003 48C69.6003 49.5425 69.3137 50.9713 68.7407 52.2862C68.1925 53.6011 67.4076 54.7517 66.3861 55.7379C65.3894 56.6989 64.2059 57.4448 62.8355 57.9759C61.49 58.5069 60.02 58.7724 58.4254 58.7724H49.7919V37.2276H58.5375ZM58.6122 56.269C59.7335 56.269 60.7799 56.0667 61.7517 55.6621C62.7234 55.2575 63.5706 54.6885 64.2931 53.9552C65.0406 53.1966 65.6137 52.3115 66.0123 51.3C66.411 50.2885 66.6103 49.2011 66.6103 48.0379C66.6103 46.8494 66.3985 45.7494 65.975 44.7379C65.5763 43.7264 65.0032 42.8414 64.2557 42.0828C63.5332 41.3241 62.6736 40.7425 61.6769 40.3379C60.6803 39.908 59.6089 39.6931 58.4627 39.6931H52.7071V56.269H58.6122Z" fill="#2C2C2C"/>
<path d="M75.3042 37.2276H78.2194V58.7724H75.3042V37.2276Z" fill="#2C2C2C"/>
<path d="M85.8522 37.2276H88.6927L101.138 54.3345V37.2276H103.941V58.7724H101.101L88.6927 41.6655V58.7724H85.8522V37.2276Z" fill="#2C2C2C"/>
<path d="M127.318 42.0448C126.471 41.2356 125.487 40.6161 124.366 40.1862C123.269 39.731 122.148 39.5034 121.002 39.5034C119.831 39.5034 118.735 39.7184 117.713 40.1483C116.716 40.5782 115.832 41.1851 115.059 41.969C114.287 42.7529 113.689 43.6632 113.265 44.7C112.842 45.7115 112.63 46.7988 112.63 47.9621C112.63 49.1506 112.842 50.2632 113.265 51.3C113.689 52.3115 114.287 53.2092 115.059 53.9931C115.832 54.777 116.729 55.3839 117.75 55.8138C118.772 56.2437 119.868 56.4586 121.039 56.4586C122.086 56.4586 123.157 56.2437 124.253 55.8138C125.35 55.3839 126.322 54.8149 127.169 54.1069L128.888 56.1552C128.19 56.7115 127.393 57.2046 126.496 57.6345C125.624 58.0644 124.702 58.4057 123.73 58.6586C122.783 58.8862 121.812 59 120.815 59C119.27 59 117.813 58.7218 116.442 58.1655C115.097 57.5839 113.913 56.7874 112.892 55.7759C111.87 54.7644 111.073 53.6011 110.5 52.2862C109.927 50.946 109.64 49.5046 109.64 47.9621C109.64 46.4195 109.927 44.9908 110.5 43.6759C111.098 42.3356 111.907 41.1724 112.929 40.1862C113.951 39.1747 115.147 38.3908 116.517 37.8345C117.912 37.2782 119.407 37 121.002 37C122.472 37 123.905 37.2782 125.3 37.8345C126.72 38.3655 127.954 39.0988 129 40.0345L127.318 42.0448ZM126.346 48.1138H128.888V56.1552H126.346V48.1138Z" fill="#2C2C2C"/>
</svg>
